<svg xmlns="http://www.w3.org/2000/svg" viewBox="0 0 900 900" role="img" aria-labelledby="title desc">
  <title id="title">CHATTY original mascot</title>
  <desc id="desc">A generic friendly robot with a speech bubble, made for an unofficial meme community token.</desc>
  <defs>
    <linearGradient id="g1" x1="150" x2="760" y1="145" y2="770" gradientUnits="userSpaceOnUse">
      <stop offset="0" stop-color="#24d1a4"/>
      <stop offset=".52" stop-color="#ffe36e"/>
      <stop offset="1" stop-color="#ff7a7a"/>
    </linearGradient>
    <filter id="shadow" x="-20%" y="-20%" width="140%" height="140%">
      <feDropShadow dx="0" dy="22" stdDeviation="26" flood-color="#141414" flood-opacity=".18"/>
    </filter>
  </defs>
  <rect width="900" height="900" rx="70" fill="#fffdf4"/>
  <circle cx="450" cy="455" r="322" fill="url(#g1)" opacity=".16"/>
  <g filter="url(#shadow)">
    <rect x="205" y="255" width="490" height="390" rx="64" fill="#ffffff" stroke="#161616" stroke-width="18"/>
    <rect x="278" y="188" width="344" height="112" rx="54" fill="#161616"/>
    <circle cx="360" cy="445" r="48" fill="#24d1a4" stroke="#161616" stroke-width="16"/>
    <circle cx="540" cy="445" r="48" fill="#ffcf54" stroke="#161616" stroke-width="16"/>
    <path d="M334 540c47 48 186 48 232 0" fill="none" stroke="#161616" stroke-linecap="round" stroke-width="20"/>
    <path d="M648 346h101c34 0 61 27 61 61v88c0 34-27 61-61 61h-32l-57 62v-62h-12z" fill="#ff7a7a" stroke="#161616" stroke-linejoin="round" stroke-width="18"/>
    <path d="M696 426h66M696 475h46" stroke="#161616" stroke-linecap="round" stroke-width="18"/>
    <path d="M250 342h-84c-35 0-64 29-64 64v87c0 35 29 64 64 64h42l42 58v-58" fill="#24d1a4" stroke="#161616" stroke-linejoin="round" stroke-width="18"/>
    <path d="M150 430h53M150 478h77" stroke="#161616" stroke-linecap="round" stroke-width="18"/>
  </g>
  <text x="450" y="748" text-anchor="middle" font-family="Arial, Helvetica, sans-serif" font-size="86" font-weight="900" fill="#161616">CHATTY</text>
  <text x="450" y="810" text-anchor="middle" font-family="Arial, Helvetica, sans-serif" font-size="29" font-weight="700" fill="#444">UNOFFICIAL MEME / COMMUNITY EXPERIMENT</text>
</svg>
